# xmcd CD database file
#
# Track frame offsets:
#	150
#	12500
#	26355
#	38855
#	50577
#	65312
#	78675
#	92875
#	106567
#	120537
#	133162
#	147432
#	162725
#	177410
#	190292
#	204025
#	216875
#	230195
#	243867
#	257902
#	270365
#	283932
#
# Disc length: 3960 seconds
#
# Revision: 2
# Processed by: cddbd v1.5PL3 Copyright (c) Steve Scherf et al.
# Submitted via: CDex 1.51
#
DISCID=460f7616
DTITLE=Billie Holiday - Lady Of Jazz - CD3 - Strange Fruit
DYEAR=1995
DGENRE=Jazz
TTITLE0=I've Got A Date With A Dream [Gordon, Revel]
TTITLE1=Everybody's Laughing [Larner, Oakland]
TTITLE2=Here It Is Tomorrow Again [Gibbons, Ringwald]
TTITLE3=Say It With A Kiss [Warlen, Mercer]
TTITLE4=They Say [Heyman, Mann, Weiss]
TTITLE5=That's All I Ask Of You [Pope]
TTITLE6=What Shall I Say? [Pitoni]
TTITLE7=It's Easy To Blame The Weather [Cahn]
TTITLE8=More Than You Know [Rose, Elison, Youmans]
TTITLE9=Sugar [Pinkard, Mitchell]
TTITLE10=Strange Fruit [Allan]
TTITLE11=Yesterdays [Kern Harbach]
TTITLE12=Fine And Mellow [Holiday]
TTITLE13=I Gotta Right To Sing The Blues [Arlen, Koehler]
TTITLE14=Some Other Spring [Herzog, Wilson]
TTITLE15=Them There Eyes [Tracey, Tauber, Pinkard]
TTITLE16=Swing Brother, Swing [Raymond, Bishop, Williams]
TTITLE17=Night And Day [Porter]
TTITLE18=The Man I Love [I. and G. Gershwin]
TTITLE19=You're A Lucky Guy [Cahn, Chaplin]
TTITLE20=Body And Soul [Green, Heyman, Sour, Eyton]
TTITLE21=Laughing At Life [M. Kenny, C. Kenny]
EXTD=YEAR: 1995
EXTT0=
EXTT1=
EXTT2=
EXTT3=
EXTT4=
EXTT5=
EXTT6=
EXTT7=
EXTT8=
EXTT9=
EXTT10=
EXTT11=
EXTT12=
EXTT13=
EXTT14=
EXTT15=
EXTT16=
EXTT17=
EXTT18=
EXTT19=
EXTT20=
EXTT21=
PLAYORDER=
